<svg xmlns="http://www.w3.org/2000/svg" height="4025.2" width="3174.8"><path style="fill:#003662;fill-rule:evenodd" d="M2202.36 2955v929.54c0 136.23 121.55 130 245.4 117.63 5.56-.34 6.43-1.45 6.52-6.13 0-2.67 5.84-614.65 5.84-629.57 35.45 34.08 307.68 427.62 364.57 505.37 108.34 147.82 71.56 133.56 296.95 133.56 39.37 0 40.8-10.8 40.8-48.8v-929.54c0-34.08-7.28-59.37-20.2-77.64-42.54-60.15-154.04-46.23-213.23-41.32-7.28.66-17.72 6.9-18.3 14.48 0 70.28.48 550.93 0 655.08-15.9-12.03-57.95-67.28-71.94-87.33-121.74-175.44-248.95-364.36-377.6-530.1-54.4-70.07-99.8-54.03-217.91-54.03-40.14 0-40.9 9.7-40.9 48.8zM1398.98 3990.25v-1.11l5.37-321.03 308.05-3c287.75 3.33 423.39-357.68 282.67-598.73-52.58-90.11-143.4-47.9-307.67-12.25-81.8 17.82-139.08 14.14-138.32 55.36 68.2 23.5 131.43-16.38 194.07 43.33 43.01 40.88 63.8 117.85 43.01 195.04-40.33 149.6-227.5 113.84-381.72 113.84 0-400.67 40.52-356.44-146.26-318.68-153.17 30.96-110.54 27.4-110.54 410.02 0 111.28-3.64 228.58-.1 339.07 4.12 131.67 115.52 113.29 229.99 113.29h1.72c16.38.22 19.73-2.56 19.73-15.15zM305.28 3272.45l8.62-15.6c26.82-81.42 154.02-140.12 230.27-186.35 42.05-25.5 235.83-135.11 256.9-159.73-238.03-51.69-453.74-18.05-608.63 103.15-129.03 100.92-204.51 330.04-172.9 566.86 29.22 219.44 156.42 357.45 343.4 413.37 172.9 51.68 508.83 29.85 627.9-73.52l3.34-302.65c0-96.24 17.92-213.86-77.1-237.37-102.3-25.28-291.87 75.64-411.22 119.86-31.9 11.8-36.88 7.24-34.3 45.89l301.64 4.9.2 160.51c1.24 77.87-1.54 67.06-84.2 81.32-97.33 16.7-210.74 11.03-287.85-32.42-134.58-75.85-165.14-312.89-96.07-488.22z"/><path style="fill:#f2303e;fill-rule:evenodd" d="m2620.86 2159.78 112.74 15.37c-5.84 5.68-.86 13.26-43.49 18.5-24.14 3-29.79 2-52.87-1.46zM801.08 2910.77c-21.08 24.62-214.86 134.22-256.9 159.73-76.26 46.23-203.46 104.93-230.28 186.36l-4.31 7.8 8.71-2.34c48.28-8.25 188.51-72.52 242.92-95.69 81.04-34.42 196.56-98.36 251.45-67.5-33.63 47.67-278.36 94.46-277.5 201.73 71.46-8.7 1180.97-356.23 1290.93-388.42 110.64-32.3 211.31-60.82 302.6-115.29 61.69-36.76 407.29-313.9 471.37-364.13 45.21-35.54 64.85-58.15 140.14-68.95 72.8-10.36 128.26-3.68 143.4-73.85-54.8 23.72-65.72 31.52-113.23-4.68 16.1-28.52 56.04-39.77 97.42-33.98 68 9.36 54.98 38.1 87.64 58.26 14.76-149.6-133.62-134.11-157.47-148.15-16.57-9.8-29.6-36.53-55.08-52.8-43.97-28.18-119.35-14.81-175.39-13.25-72.41 1.9-128.16-11.14-194.93-12.14 9.4 33.08 27.3 39.32 45.4 71.62-21.45 13.14-31.5 11.47-63.98 16.7-22.8 3.68-48.56 8.8-64.56 15.38-6.23 44.33 62.36 80.42 30.75 145.48-23.28-14.04-688.91-868.4-736.32-930-43.01-55.92-81.42-100.92-124.15-156.84-118.96-155.5-208.72-220-340.52-350.87-25.2-24.96-44.45-50.13-70.02-73.97L621.86 405.5c-49.91-47.79-94.55-88.9-143.88-137.01L267.73 60.97C239.95 34.12 207.76-8.32 190.8 7.6c-18.87 33.53-11.78 219.55 2.87 264.1 25.48 77.76 82.38 117.2 127.21 161.19 97.8 95.9 190.43 184.9 287.94 281.04C743.89 847.04 898 1007 1036.8 1135.88c32.76 30.41 120.12 99.25 102.5 180.9-24.53-8.13-359.88-342.52-415.54-393.76l-358.82-354c-20.4-18.94-31.6-42.78-65.7-42.89-17.73 30.3-11.02 201.17-.87 239.38 19.92 75.3 69.16 110.39 109.2 149.82l517.44 505.38c45.6 43.77 79.9 76.19 125.49 126.65 36.3 40.2 102.2 75.18 90.33 167.64-38.7-9.25-140.05-129.55-182.29-169.31L500.11 1103.8c-101.44-99.7-101.34-111.95-101.34 28.07 0 123.53-.77 150.16 93.3 246.62C641.4 1531.65 780.18 1656.4 950.6 1827.5c104.89 105.27 191.67 151.94 192.53 265.89-33.43-10.92-408.05-386.63-465.43-439.54-55.56-51.36-121.36-140.02-162.46-142.25-20.4 35.53-34.86 214.31 65.9 310.89 125.97 120.75 273.1 274.58 400.2 392.1a3757.87 3757.87 0 0 1 99.34 95.23c32.76 32.53 64.47 69.84 61.69 142.02-34.77-6.9-93.4-81.09-130.08-116.85-44.45-43.21-84.1-79.97-129.5-122.64l-188.42-186.02c-22.23-20.72-41.57-54.8-76.82-49.9-18.87 90.11-4.99 205.07 45.6 261.21 25.76 28.63 52.2 50.68 80.17 78.3l239.08 236.38c72.32 68.95 83.05 95.46 147.61 126.31 24.33 11.7 11.2-.78 24.24 16.93z"/><path style="fill:#f2303e;fill-rule:evenodd" d="m2286.46 1407.56-6.9-8.58c-31.7-51.35-143.58-450.57-180.36-479.53-36.5 15.48-83.24 139.68-88.13 176.33-21.46 159.96 227.5 531.33 124.14 620.67l-82.76-213.54c-16.48-46.78-55.27-189.47-82.86-210.64-28.54 9.03-101.24 146.48-88.89 236.15 5.75 41.66 67.05 214.76 87.94 245.61 40.32 59.6 97.5 127.32 142.34 182.02l107.95 136.9c16.57 21.5 18.87 34.08 46.36 39.1l271.08-548.27c36.4-87.44 10.92-146.48-16.38-224.56l-210.83-610.64c-21.07-60.37-46.17-148.26-70.69-200.95-37.26 5.9-31.9 20.6-63.7 83.43-17.24 33.98-33.24 63.94-35.44 111.5-3.35 71.18 107 356.23 136.3 443.34 20.31 60.37 70.32 165.19 10.83 221.66z"/></svg>
