<svg width="409.59" height="65.81" viewBox="0 0 108.37 17.41" xmlns="http://www.w3.org/2000/svg"><defs><clipPath id="a"><path d="M0 0h960v540H0z" clip-rule="evenodd"/></clipPath><clipPath id="b"><path d="M0 0h130.46v23.58H0z"/></clipPath></defs><g clip-path="url(#a)" transform="matrix(.73138 0 0 -.73138 -582.53 386.58)"><g clip-path="url(#b)" transform="matrix(1.16079 0 0 1.14518 795.24 502.8)"><path d="M18.81 19.1h13.96v-8.48H26.9l5.86-5.43h-4.98l-5.74 5.43V5.2H18.8v8.63h10.23v2.06H18.81zM34.22 5.2h3.4v13.94h-3.4zM6.9 8.56V19.1H4.24a.83.83 0 0 1-.85-.82L3.35 6.04c0-.45.37-.85.83-.85h7.93v3.37zm6.97-6.85h3.5V8.7h-3.5v-7z"/><path d="M8.61 19.1v-3.47h5.26v-5.2h3.5v7.83c0 .45-.38.82-.83.85H8.61z"/><path d="M8.61 13.93V10.4h3.47v3.53H8.6zm2.45-2.46H9.63v1.41h1.43v-1.4zM54.37 8.7V3.5c0-.46-.4-.83-.86-.83h-5.23v-.84h6.11c.43 0 .8.36.8.82V8.7zM1.93 15.66v5.2c0 .45.34.8.8.8h5.23c.03 0 .03.02.03.02v.8s0 .02-.03.02H1.93a.84.84 0 0 1-.85-.85v-6c0-.02.03-.02.03-.02h.8s.02 0 .02.03z"/><path d="M52.89 15.66v3.45H39.1v-8.66h9.18V8.73H39.1V5.25h13.8v8.65h-9.2v1.76zm9.94-1.56H59.8c-.37 0-.7.06-1.05.2-.31.11-.62.31-.85.54a2.7 2.7 0 0 0 .82 4.41c.34.14.69.2 1.08.2.37 0 .71-.06 1.06-.2.3-.14.6-.31.85-.54.22-.25.42-.5.57-.85.14-.3.2-.65.2-1.01 0-.23-.03-.46-.06-.66a2.4 2.4 0 0 0-.63-1.1 1.31 1.31 0 0 0-.5-.37h1.55zm-3.06.65c.28 0 .56.06.8.17.22.12.44.26.62.43.17.2.28.4.4.65a2.28 2.28 0 0 1 0 1.58c-.12.26-.26.45-.43.62a1.92 1.92 0 0 1-2.16.42 1.44 1.44 0 0 1-.6-.42 2.02 2.02 0 0 1-.43-.62 2.15 2.15 0 0 1 0-1.55c.09-.26.23-.49.4-.66.17-.2.37-.34.63-.45.23-.11.48-.17.77-.17zm3.8 4.58h1.85c.34 0 .63-.05.82-.14a2 2 0 0 0 .54-.36c.12-.15.2-.29.26-.46.06-.17.06-.34.06-.5 0-.18-.03-.35-.09-.49a1.07 1.07 0 0 0-.25-.42 1.09 1.09 0 0 0-.4-.31 1.73 1.73 0 0 0-.54-.17l1.5-2.38h-.9l-1.34 2.3h-.8v-2.3h-.7zm.71-2.31h.94c.14 0 .29 0 .43.02.11.03.25.06.34.14.11.06.2.15.25.26.09.08.12.25.12.42 0 .17-.03.31-.12.43a.55.55 0 0 1-.25.25.7.7 0 0 1-.34.11c-.14.03-.29.06-.43.06h-.94zm9.55 1.18c-.14.17-.34.34-.57.43-.22.11-.45.17-.7.17a1.97 1.97 0 0 1-1.42-.62c-.18-.2-.3-.43-.4-.68a2.4 2.4 0 0 1 0-1.61c.08-.26.22-.49.4-.66.16-.2.36-.34.59-.45.25-.11.54-.17.82-.17a1.74 1.74 0 0 1 1.4.7l.6-.45-.24-.22c-.08-.09-.22-.2-.36-.31-.18-.09-.37-.17-.6-.26s-.51-.11-.8-.11c-.42 0-.8.08-1.13.23-.32.17-.6.36-.86.62-.22.25-.4.56-.54.87a2.9 2.9 0 0 0-.17 1 2.82 2.82 0 0 0 .77 1.97c.23.26.51.46.85.6.34.14.71.2 1.11.2.34 0 .68-.06 1.02-.2.35-.14.6-.34.83-.62zm1.22-2.34c0 .25.06.48.15.7.11.23.22.43.4.57.16.17.36.3.6.4a1.67 1.67 0 0 0 1.47 0c.23-.1.42-.23.6-.4a1.7 1.7 0 0 0 .53-1.27c0-.29-.05-.51-.14-.74a2.15 2.15 0 0 0-.4-.6 2.12 2.12 0 0 0-.6-.36c-.22-.11-.47-.14-.73-.14s-.51.03-.74.14c-.23.08-.43.22-.6.37-.17.17-.28.36-.4.59a2 2 0 0 0-.14.74zm.72 0c0-.2.02-.37.08-.51a1.08 1.08 0 0 1 .6-.62c.14-.06.3-.12.48-.12.17 0 .34.06.48.11a1.07 1.07 0 0 1 .6.63c.06.14.09.3.09.5 0 .18-.03.34-.09.49-.06.14-.14.28-.23.36-.11.12-.22.2-.37.26a.94.94 0 0 1-.48.11.93.93 0 0 1-.48-.11 1.08 1.08 0 0 1-.6-.62 1.31 1.31 0 0 1-.09-.48zm7.38-1.76h-.65v.48h-.03a1.39 1.39 0 0 0-.54-.42 2.12 2.12 0 0 0-1.42-.03c-.23.11-.4.23-.57.4-.14.17-.25.36-.34.59a1.96 1.96 0 0 0 0 1.44c.09.23.2.43.34.6.17.17.34.28.57.4.23.08.48.13.74.13a1.55 1.55 0 0 0 1.22-.59h.03v2.57h.65zm-1.82.51c.17 0 .35.06.49.11a1.07 1.07 0 0 1 .6.63c.05.14.08.3.08.5 0 .18-.03.34-.09.49a1.07 1.07 0 0 1-.6.62.94.94 0 0 1-.48.11.93.93 0 0 1-.48-.11 1.08 1.08 0 0 1-.6-.62 1.31 1.31 0 0 1-.08-.48c0-.2.03-.37.08-.51a1.08 1.08 0 0 1 .6-.62c.14-.06.31-.12.48-.12zm3.33.99c0-.14.06-.28.11-.42a.9.9 0 0 1 .26-.31c.11-.09.25-.17.4-.23.14-.03.28-.06.42-.06.23 0 .4.06.54.14.17.09.32.23.43.37l.51-.37c-.37-.48-.88-.7-1.56-.7-.29 0-.51.02-.74.11a2.2 2.2 0 0 0-.6.4c-.14.16-.25.36-.34.59a1.96 1.96 0 0 0 0 1.44c.09.23.23.43.4.6.14.17.34.28.57.4.23.08.45.13.7.13a1.66 1.66 0 0 0 1.34-.59c.15-.17.23-.37.29-.6.08-.22.11-.45.11-.67v-.23zm2.13.54c-.03.14-.03.28-.08.4a.73.73 0 0 1-.2.3.64.64 0 0 1-.32.23.94.94 0 0 1-.42.09.84.84 0 0 1-.46-.12 1.03 1.03 0 0 1-.56-.56.75.75 0 0 1-.09-.34zm3.9-.96c.1-.17.28-.31.48-.43.2-.08.42-.14.62-.14.12 0 .26.03.37.06l.34.17c.09.08.17.17.23.28.09.11.11.23.11.37 0 .2-.05.37-.2.48-.1.08-.28.17-.48.25-.17.09-.4.14-.62.2-.23.09-.43.17-.63.28-.17.12-.34.29-.45.48-.15.2-.2.46-.2.83 0 .14.03.3.08.48a1.61 1.61 0 0 0 .88.82c.23.1.49.14.8.14.31 0 .57-.03.82-.12.29-.08.52-.22.71-.48l-.6-.5a1.2 1.2 0 0 1-.94.45c-.19 0-.33-.03-.47-.09a.85.85 0 0 1-.49-.45L91 18c0-.23.08-.4.2-.54.14-.12.28-.2.48-.29.2-.05.4-.14.62-.2.23-.05.43-.13.63-.22.2-.11.34-.25.48-.45.12-.17.17-.43.17-.74 0-.25-.02-.48-.14-.68-.08-.2-.23-.36-.37-.5a1.52 1.52 0 0 0-.6-.32 2.5 2.5 0 0 0-1.65.06c-.3.11-.53.31-.73.56zm5.68 1.84h-.97v-1.87c.03-.11.03-.2.06-.28.06-.06.08-.12.17-.17.06-.06.14-.09.28-.09.09 0 .17.03.26.03.08.03.14.06.23.08v-.59c-.09-.06-.2-.08-.32-.11h-.28c-.28 0-.48.03-.6.08a.76.76 0 0 0-.3.28c-.1.12-.12.26-.15.4v2.24h-.77v.56h.77v.99h.65v-.99h.97zm.88.14a2.14 2.14 0 0 0 1.4.54c.25 0 .47-.06.64-.12a1 1 0 0 0 .46-.25c.11-.12.23-.23.28-.37.03-.14.06-.29.06-.45v-1.79c0-.11.03-.22.03-.34s0-.2.03-.28h-.6c-.03.17-.03.34-.03.51h-.03a1.37 1.37 0 0 0-.5-.48c-.2-.09-.46-.11-.72-.11-.17 0-.31 0-.45.05-.17.03-.29.12-.4.2s-.2.2-.26.34a.77.77 0 0 0-.11.45c0 .23.06.4.17.57a1 1 0 0 0 .4.37 3.11 3.11 0 0 0 1.36.25h.51v.17c0 .09-.02.17-.05.25a.68.68 0 0 1-.17.26c-.06.06-.14.11-.26.17-.11.03-.23.06-.37.06-.11 0-.22-.03-.34-.06-.08 0-.17-.06-.25-.09-.09-.02-.15-.08-.23-.1-.06-.06-.12-.12-.17-.15zm1.87-1.39c-.17 0-.3 0-.48-.03-.17 0-.31-.06-.45-.08a.73.73 0 0 1-.34-.23c-.09-.08-.12-.2-.12-.34 0-.2.06-.34.2-.42s.31-.14.54-.14c.2 0 .34.02.48.1.12.06.23.15.32.23.08.12.14.2.17.34.03.12.05.23.05.34v.23zm1.97 1.81h.65v-.54h.03c.08.2.23.34.42.46.2.14.46.2.71.2.18 0 .35-.04.52-.1.14-.05.28-.13.39-.25.12-.08.2-.22.29-.4.06-.16.08-.39.08-.61V14.1h-.65v2.07c0 .17-.03.28-.09.42a.37.37 0 0 1-.17.26.4.4 0 0 1-.25.16c-.09.03-.2.06-.29.06a.87.87 0 0 1-.39-.08.75.75 0 0 1-.32-.2 1.89 1.89 0 0 1-.2-.37 1.59 1.59 0 0 1-.08-.54V14.1h-.65zm7.64-3.48h-.68v.48c-.14-.17-.31-.3-.54-.42s-.46-.14-.68-.14c-.29 0-.52.03-.74.11-.23.11-.43.23-.57.4-.17.17-.28.36-.37.59a1.9 1.9 0 0 0-.11.74 1.75 1.75 0 0 0 1.05 1.7c.22.08.45.13.74.13a1.57 1.57 0 0 0 1.22-.59v2.57h.68zm-1.82.51c.17 0 .34.06.48.11.15.06.26.15.35.26.11.08.19.22.22.37.06.14.09.3.09.5 0 .18-.03.34-.09.49a.65.65 0 0 1-.22.36c-.09.12-.2.2-.35.26a.92.92 0 0 1-.48.11.86.86 0 0 1-.48-.11.84.84 0 0 1-.37-.26c-.11-.08-.17-.22-.23-.36a1.25 1.25 0 0 1-.08-.48c0-.2.02-.37.08-.51a.88.88 0 0 1 .23-.37c.08-.11.23-.2.37-.26.14-.05.28-.11.48-.11zm2.84 2.55a2.23 2.23 0 0 0 1.4.54c.25 0 .48-.06.65-.12.2-.06.34-.14.45-.25a.84.84 0 0 0 .29-.37c.06-.14.08-.29.08-.45v-2.13c0-.1 0-.2.03-.28h-.59c-.03.17-.03.34-.03.51a1.68 1.68 0 0 0-.54-.48 1.8 1.8 0 0 0-.71-.11c-.17 0-.32 0-.46.05-.14.03-.28.12-.4.2a.82.82 0 0 0-.25.34c-.06.11-.12.28-.12.45 0 .23.06.4.18.57.08.14.22.28.39.37.2.08.4.17.63.2.23.05.48.05.77.05h.48v.17c0 .09-.03.17-.06.25s-.08.17-.17.26c-.06.06-.14.11-.25.17-.09.03-.23.06-.37.06-.12 0-.23-.03-.34-.06-.09 0-.18-.06-.26-.09-.09-.02-.14-.08-.2-.1-.08-.06-.14-.12-.2-.15zm1.88-1.39c-.14 0-.31 0-.48-.03-.17 0-.32-.06-.46-.08a.89.89 0 0 1-.34-.23c-.08-.08-.11-.2-.11-.34 0-.2.05-.34.2-.42.14-.09.31-.14.56-.14.17 0 .32.02.46.1.14.06.23.15.31.23.09.12.14.2.17.34.03.12.06.23.06.34v.23zm1.96 1.81h.65v-.54h.03c.03.12.12.2.17.26a1.66 1.66 0 0 0 .57.34c.09.02.2.05.31.05.12 0 .2-.03.29-.05l-.03-.71c-.06 0-.09.03-.14.03h-.17c-.34 0-.57-.09-.74-.26-.2-.2-.29-.48-.29-.85V14.1h-.65zM57.4 10.45h1.85c.34 0 .63-.03.83-.14.22-.08.4-.2.5-.34.15-.14.24-.28.3-.48.02-.17.05-.34.05-.5 0-.15-.03-.32-.06-.49-.05-.2-.14-.34-.28-.48a1.16 1.16 0 0 0-.51-.34c-.2-.11-.49-.14-.83-.14h-1.13V5.22h-.71zm.72-2.29h.93a1.75 1.75 0 0 1 .77.14c.11.06.2.14.26.26.05.11.11.25.11.42 0 .2-.06.34-.11.45a.55.55 0 0 1-.26.26c-.11.06-.23.08-.37.11-.11.03-.25.03-.4.03h-.93zm4.03-1.41a.97.97 0 0 1 .34-.76c.12-.1.26-.15.4-.2s.29-.06.43-.06c.23 0 .4.03.54.14.17.08.31.23.42.37l.52-.37a1.85 1.85 0 0 0-1.57-.74c-.28 0-.51.06-.74.15-.22.08-.42.22-.56.4-.18.16-.29.36-.37.59a1.85 1.85 0 0 0 0 1.44 1.7 1.7 0 0 0 .96.96c.23.11.46.14.71.14.32 0 .6-.05.8-.17.23-.08.4-.22.54-.42.14-.17.23-.37.28-.57.09-.22.12-.45.12-.68v-.22zm2.1.5c-.02.18-.02.29-.08.43-.03.11-.11.23-.17.31-.09.09-.2.17-.34.23-.11.05-.26.05-.43.05-.17 0-.31-.02-.45-.08s-.26-.14-.34-.23a2.39 2.39 0 0 1-.23-.34c-.06-.1-.06-.22-.06-.36zm1.51 1.48h.63v-.54c.02.06.05.11.11.17.09.08.14.14.26.23l.34.17c.11.02.25.05.42.05.26 0 .49-.05.66-.17.2-.08.34-.25.45-.48.11.23.26.4.48.48.2.12.4.17.63.17.26 0 .48-.03.65-.11.17-.11.32-.23.43-.37.09-.14.17-.31.2-.48.03-.2.06-.4.06-.6V5.23h-.69v1.95c0 .14 0 .28-.03.4 0 .11-.02.22-.08.3a.58.58 0 0 1-.23.23.9.9 0 0 1-.4.09c-.34 0-.56-.09-.7-.28-.12-.2-.2-.46-.2-.77V5.22h-.66v1.84c0 .17-.03.3-.03.45-.02.14-.05.26-.11.37a.44.44 0 0 1-.23.22c-.08.06-.23.09-.37.09s-.25-.03-.37-.06a.72.72 0 0 1-.28-.22 1.3 1.3 0 0 1-.28-.85V5.22h-.66zm6.31 2.09h.68v-2.6c.14.2.31.34.51.45.23.09.49.14.71.14.29 0 .54-.03.74-.14a1.62 1.62 0 0 0 .94-.96c.09-.23.11-.48.11-.74a1.84 1.84 0 0 0-.48-1.3 1.38 1.38 0 0 0-.57-.4c-.2-.08-.45-.14-.74-.14-.22 0-.45.06-.68.17-.23.09-.4.23-.54.43v-.51h-.68zm1.85-5.06c.17 0 .34.03.48.08.14.09.26.17.34.26.11.11.2.25.23.4.06.13.08.3.08.47s-.02.34-.08.51a.73.73 0 0 1-.23.37c-.08.11-.2.2-.34.25-.14.06-.31.09-.48.09-.2 0-.34-.03-.49-.09a.86.86 0 0 1-.37-.25.98.98 0 0 1-.22-.37c-.06-.17-.09-.34-.09-.5s.03-.35.09-.49c.05-.14.11-.28.22-.4.09-.08.23-.16.37-.25.15-.05.29-.08.49-.08zm2.7 2.54c.2.17.42.31.65.4.26.08.51.11.77.11s.45-.03.65-.08c.17-.06.34-.14.46-.26.11-.11.2-.25.25-.37.06-.14.09-.3.09-.45V5.53c.03-.11.03-.2.03-.31h-.6v.54h-.03c-.14-.23-.31-.4-.51-.48a1.98 1.98 0 0 0-.71-.15c-.17 0-.34.03-.48.09-.15.03-.29.08-.37.2-.12.08-.2.2-.29.3-.06.15-.08.3-.08.46 0 .23.05.43.14.57.11.17.25.28.42.4.18.08.37.13.63.2.23.02.48.05.74.05h.48v.14c0 .08 0 .2-.06.28a.6.6 0 0 1-.14.23.5.5 0 0 1-.25.17c-.12.05-.23.05-.37.05s-.26 0-.34-.02c-.12-.03-.2-.06-.26-.09a.62.62 0 0 1-.23-.14c-.05-.03-.11-.09-.2-.14zm1.9-1.38c-.17 0-.34 0-.48-.03a2.15 2.15 0 0 1-.46-.11.69.69 0 0 1-.34-.2.47.47 0 0 1-.14-.34c0-.2.09-.34.23-.43a.94.94 0 0 1 .54-.14c.17 0 .34.03.45.09.14.05.26.14.32.25.08.09.14.2.17.31a.9.9 0 0 1 .05.37v.23zm1.54 1.81h.76l1.06-2.75.99 2.75h.71l-1.65-4.25c-.06-.17-.14-.3-.2-.42a1.24 1.24 0 0 0-.22-.31c-.09-.11-.2-.17-.32-.23a2.27 2.27 0 0 0-.48-.05h-.28c-.12.02-.2.05-.29.08l.09.6c.11-.03.25-.06.4-.06.08 0 .16 0 .25.03.06.02.11.05.17.1.06.07.11.12.14.2l.09.23.22.57zm4.12-.43c.2.17.42.31.65.4.26.08.51.11.77.11.25 0 .45-.03.65-.08.17-.06.34-.14.46-.26.11-.11.2-.25.25-.37.06-.14.09-.3.09-.45V5.87c0-.14 0-.25.03-.34v-.31h-.6v.54h-.03c-.14-.23-.31-.4-.51-.48a2 2 0 0 0-.71-.15c-.17 0-.34.03-.48.09a.68.68 0 0 0-.37.2c-.12.08-.2.2-.29.3-.05.15-.08.3-.08.46 0 .23.05.43.14.57.11.17.25.28.43.4.17.08.36.13.62.2.23.02.48.05.74.05h.48v.14c0 .08 0 .2-.05.28a.62.62 0 0 1-.15.23.51.51 0 0 1-.25.17c-.12.05-.23.05-.37.05s-.26 0-.34-.02L85 8.16a.63.63 0 0 1-.23-.14l-.17-.14zm1.9-1.38c-.17 0-.34 0-.48-.03a2.12 2.12 0 0 1-.46-.11c-.14-.03-.25-.12-.34-.2s-.14-.2-.14-.34c0-.2.09-.34.23-.43a.95.95 0 0 1 .54-.14c.2 0 .34.03.48.09.11.05.23.14.28.25.09.09.15.2.18.31a.9.9 0 0 1 .05.37v.23zm1.93 1.81h.69v-.54c.05.08.1.17.2.25.05.09.14.15.22.2l.31.14c.12.03.23.03.34.03.09 0 .2 0 .29-.03l-.03-.73c-.06.03-.11.03-.17.05h-.17c-.31 0-.57-.08-.74-.25-.17-.2-.26-.48-.26-.88V5.22h-.68zm2.79-.43c.17.17.4.31.65.4.23.08.48.11.74.11s.46-.03.65-.08.35-.14.46-.26c.11-.11.2-.25.26-.37.05-.14.08-.3.08-.45V5.87c0-.14 0-.25.03-.34v-.31h-.57c-.03.2-.03.37-.03.54h-.03c-.14-.23-.3-.4-.5-.48-.2-.09-.46-.15-.72-.15-.17 0-.31.03-.48.09a.68.68 0 0 0-.37.2c-.12.08-.2.2-.29.3-.05.15-.08.3-.08.46 0 .23.06.43.14.57.11.17.26.28.43.4.17.08.37.13.62.2.23.02.49.05.74.05h.48v.14c0 .08 0 .2-.02.28-.06.09-.09.17-.17.23a.41.41 0 0 1-.26.17c-.11.05-.23.05-.37.05s-.26 0-.34-.02l-.26-.09a.6.6 0 0 1-.22-.14c-.06-.03-.12-.09-.17-.14zm1.87-1.38c-.17 0-.3 0-.48-.03a2.12 2.12 0 0 1-.45-.11c-.15-.03-.26-.12-.34-.2s-.12-.2-.12-.34c0-.2.06-.34.2-.43.14-.08.31-.14.54-.14.2 0 .34.03.48.09.12.05.23.14.32.25l.17.31c.03.14.03.26.03.37v.23zm1.97 1.81h.65v-.54h.03c.08.2.22.34.42.45.2.12.46.17.71.17.17 0 .35-.03.49-.05.17-.06.3-.15.42-.26.12-.11.2-.25.29-.42.05-.17.08-.37.08-.6V5.22h-.65v2.06c0 .17-.03.32-.09.43-.02.11-.08.22-.17.28-.08.09-.17.11-.25.17-.09.03-.2.03-.29.03-.14 0-.28 0-.4-.06-.1-.05-.22-.11-.3-.2a.92.92 0 0 1-.2-.36 1.64 1.64 0 0 1-.1-.54V5.22h-.64zm6.33 1.72h.94l2.9-4.3h.03v4.3h.71V5.22h-.91l-2.93 4.3h-.03v-4.3h-.71zm5.77-2.15c.17.17.4.31.65.4.23.08.49.11.74.11.26 0 .49-.03.66-.08.2-.06.34-.14.45-.26.12-.11.2-.25.26-.37.05-.14.08-.3.08-.45V5.87c0-.14 0-.25.03-.34v-.31h-.57c-.03.2-.03.37-.03.54h-.02c-.15-.23-.32-.4-.52-.48a1.82 1.82 0 0 0-.71-.15c-.17 0-.31.03-.48.09a.71.71 0 0 0-.37.2c-.11.08-.2.2-.25.3a.8.8 0 0 0-.12.46c0 .23.06.43.14.57.12.17.26.28.43.4.17.08.37.13.63.2.22.02.48.05.73.05h.49v.14c0 .08 0 .2-.03.28-.06.09-.09.17-.17.23a.42.42 0 0 1-.26.17c-.11.05-.22.05-.37.05-.14 0-.22 0-.34-.02l-.25-.09c-.09-.03-.15-.08-.23-.14-.06-.03-.11-.09-.17-.14zm1.88-1.38c-.17 0-.32 0-.49-.03a2.06 2.06 0 0 1-.45-.11.67.67 0 0 1-.34-.2c-.09-.09-.12-.2-.12-.34 0-.2.06-.34.2-.43.15-.08.32-.14.54-.14.2 0 .34.03.49.09.11.05.22.14.31.25l.17.31c.03.14.03.26.03.37v.23zm3.81.93c-.06.11-.18.17-.29.25a.93.93 0 0 1-.43.09.87.87 0 0 1-.39-.09c-.12-.08-.2-.17-.2-.3 0-.1.05-.18.11-.23.06-.09.14-.12.23-.17l.31-.09c.09-.03.17-.03.26-.05.14-.03.28-.09.4-.12.14-.05.25-.11.34-.2.08-.08.17-.16.19-.28a.9.9 0 0 0 .09-.42c0-.2-.03-.37-.11-.51-.09-.14-.2-.26-.34-.34-.12-.09-.29-.14-.46-.2a2.23 2.23 0 0 0-1.28.08c-.23.1-.42.26-.59.49l.51.42c.11-.11.22-.2.37-.28a.8.8 0 0 1 .48-.14c.08 0 .17 0 .26.03.08.02.17.05.22.08.06.03.12.08.17.14a.4.4 0 0 1 .06.2c0 .08-.03.17-.09.23-.05.08-.14.1-.22.17l-.29.08c-.08.03-.17.03-.25.06-.14.03-.29.05-.4.11-.14.06-.26.11-.34.17a.7.7 0 0 0-.23.28.71.71 0 0 0-.11.43c0 .2.05.34.11.48.09.14.2.25.31.34l.43.2c.17.02.34.05.48.05.26 0 .49-.03.69-.11.22-.11.39-.26.53-.45zm1.33 2.12c0 .14.06.26.14.37a.48.48 0 0 0 .68 0 .45.45 0 0 0 .15-.37.44.44 0 0 0-.15-.34.48.48 0 0 0-.68 0 .62.62 0 0 0-.14.34zm.14-1.24h.68V5.22h-.68zm1.57-1.76c0 .26.05.51.14.74.11.2.23.4.4.56.17.17.37.32.59.4.23.11.49.14.74.14.26 0 .51-.03.74-.14.23-.08.43-.23.6-.4.17-.17.28-.36.4-.56.08-.23.14-.48.14-.74s-.06-.48-.14-.7a2.35 2.35 0 0 0-.4-.6 2.16 2.16 0 0 0-.6-.4 2.14 2.14 0 0 0-.74-.14c-.25 0-.51.06-.74.15-.22.1-.42.22-.59.4-.17.16-.29.36-.4.59-.09.22-.14.45-.14.7zm.71 0c0-.17.02-.34.08-.48.06-.14.14-.28.23-.4l.37-.25c.14-.05.31-.08.48-.08s.34.03.48.08c.15.09.26.17.37.26.09.11.17.25.23.4.06.13.09.3.09.47s-.03.34-.09.51c-.06.14-.14.26-.23.37a.98.98 0 0 1-.37.25c-.14.06-.31.09-.48.09s-.34-.03-.48-.09a1.07 1.07 0 0 1-.37-.25 1.56 1.56 0 0 1-.23-.37 1.5 1.5 0 0 1-.08-.5zm3.86 1.76h.68v-.54c.09.2.23.34.46.45.2.12.42.17.71.17.17 0 .34-.03.48-.05.17-.06.29-.15.43-.26.11-.11.2-.25.25-.42.09-.17.12-.37.12-.6V5.22h-.68v2.06c0 .17 0 .32-.06.43a.79.79 0 0 1-.17.28c-.09.09-.17.11-.26.17-.11.03-.2.03-.31.03-.14 0-.26 0-.37-.06s-.23-.11-.31-.2a1.56 1.56 0 0 1-.23-.36c-.03-.17-.06-.34-.06-.54V5.22h-.68zm4.15-.43c.2.17.4.31.65.4.26.08.49.11.74.11.26 0 .49-.03.66-.08.2-.06.34-.14.48-.26.11-.11.2-.25.26-.37.05-.14.08-.3.08-.45V5.53c0-.11 0-.2.03-.31h-.6c-.03.2-.03.37-.03.54a1.4 1.4 0 0 0-.54-.48 1.7 1.7 0 0 0-.71-.15c-.14 0-.31.03-.45.09a.76.76 0 0 0-.4.2c-.11.08-.2.2-.25.3-.06.15-.12.3-.12.46 0 .23.06.43.17.57.09.17.23.28.4.4.2.08.4.13.63.2.22.02.48.05.76.05h.49v.14c0 .08-.03.2-.06.28a.75.75 0 0 1-.14.23.6.6 0 0 1-.29.17c-.08.05-.22.05-.37.05-.11 0-.22 0-.34-.02l-.25-.09a.44.44 0 0 1-.2-.14c-.09-.03-.14-.09-.2-.14zm1.88-1.38c-.15 0-.32 0-.49-.03a2.06 2.06 0 0 1-.45-.11.58.58 0 0 1-.31-.2c-.12-.09-.15-.2-.15-.34 0-.2.06-.34.2-.43.14-.08.32-.14.57-.14.17 0 .34.03.46.09.14.05.22.14.31.25.08.09.14.2.17.31.03.14.06.26.06.37v.23zm2.01-1.7h.65v5.6h-.65z"/></g></g></svg>
